# xmcd
# 
# Track frame offsets:
#     150
#     24900
#     48715
#     68511
#     82222
# 
# Disc length: 1459
# 
# Revision: 0
# Processed by: cddbd v1.5.2PL0 Copyright (c) Steve Scherf et al.
# Submitted via: fre:ac v1.0.17
# 
DISCID=3a05b105
DTITLE=Thundarr - Demon Dogs
DYEAR=2015
DGENRE=Metal
TTITLE0=Reign of Fire
TTITLE1=Wizard Warz
TTITLE2=Old Man Of Wandering Mountain
TTITLE3=Only Demons Should Fear Me
TTITLE4=Prophecy Of Peril
EXTD=
EXTT0=
EXTT1=
EXTT2=
EXTT3=
EXTT4=
PLAYORDER=
